<svg width="778" height="515" viewBox="0 0 778 515" fill="none" xmlns="http://www.w3.org/2000/svg">
<g filter="url(#filter0_i_17_149)">
<path d="M735.357 515L736.243 513.523C724.363 507.729 709.578 500.519 701.855 488.686C694.243 477.022 694.072 461.182 701.41 447.349C707.654 435.576 719.125 425.029 734.581 416.846C737.63 415.232 740.831 413.703 743.926 412.224C751.407 408.648 759.143 404.951 765.522 399.705C774.307 392.48 780.955 380.356 776 369.557C774.371 366.11 771.702 363.144 768.298 360.996C764.893 358.848 760.889 357.603 756.739 357.404L756.634 359.082C760.436 359.264 764.104 360.403 767.224 362.37C770.344 364.337 772.79 367.053 774.284 370.21C778.888 380.246 772.571 391.634 764.267 398.464C758.062 403.566 750.432 407.213 743.053 410.739C739.941 412.227 736.722 413.765 733.638 415.398C717.86 423.75 706.134 434.548 699.729 446.624C692.128 460.955 692.327 477.399 700.25 489.538C708.235 501.774 723.273 509.108 735.357 515Z" fill="#F1F1F1"/>
<path d="M771.281 514.804H469.475C469.228 514.804 468.991 514.715 468.817 514.558C468.642 514.4 468.544 514.186 468.544 513.964C468.544 513.741 468.642 513.527 468.817 513.37C468.991 513.212 469.228 513.124 469.475 513.124H771.281C771.528 513.124 771.765 513.212 771.94 513.37C772.114 513.527 772.213 513.741 772.213 513.964C772.213 514.186 772.114 514.4 771.94 514.558C771.765 514.715 771.528 514.804 771.281 514.804Z" fill="#CBCBCB"/>
<path d="M607.209 505.743L597.551 505.742L592.957 472.151L607.211 472.152L607.209 505.743Z" fill="#FFB7B7"/>
<path d="M609.672 514.185L578.531 514.184V513.829C578.531 510.93 579.809 508.15 582.082 506.1C584.355 504.051 587.437 502.899 590.652 502.899H590.653L609.672 502.9L609.672 514.185Z" fill="#2F2E41"/>
<path d="M639.507 505.743L629.849 505.742L625.255 472.151L639.508 472.152L639.507 505.743Z" fill="#FFB7B7"/>
<path d="M641.969 514.185L610.829 514.184V513.829C610.829 510.93 612.106 508.15 614.379 506.1C616.652 504.051 619.735 502.899 622.95 502.899H622.951L641.97 502.9L641.969 514.185Z" fill="#2F2E41"/>
<path d="M715.124 460.338C724.127 460.338 731.425 457.142 731.425 453.198C731.425 449.255 724.127 446.059 715.124 446.059C706.121 446.059 698.823 449.255 698.823 453.198C698.823 457.142 706.121 460.338 715.124 460.338Z" fill="#F1F1F1"/>
<path d="M682.521 460.338C691.524 460.338 698.823 457.142 698.823 453.198C698.823 449.255 691.524 446.059 682.521 446.059C673.519 446.059 666.22 449.255 666.22 453.198C666.22 457.142 673.519 460.338 682.521 460.338Z" fill="#F1F1F1"/>
<path d="M731.891 413.299C740.894 413.299 748.192 410.102 748.192 406.159C748.192 402.215 740.894 399.019 731.891 399.019C722.888 399.019 715.59 402.215 715.59 406.159C715.59 410.102 722.888 413.299 731.891 413.299Z" fill="#F1F1F1"/>
<path d="M761.699 420.859C770.702 420.859 778 417.662 778 413.719C778 409.775 770.702 406.579 761.699 406.579C752.696 406.579 745.397 409.775 745.397 413.719C745.397 417.662 752.696 420.859 761.699 420.859Z" fill="#F1F1F1"/>
<path d="M617.584 371.164H0.931499C0.68445 371.164 0.447519 371.076 0.272829 370.918C0.0981391 370.761 0 370.547 0 370.324C0 370.102 0.0981391 369.888 0.272829 369.73C0.447519 369.573 0.68445 369.484 0.931499 369.484H617.584C617.831 369.484 618.068 369.573 618.242 369.73C618.417 369.888 618.515 370.102 618.515 370.324C618.515 370.547 618.417 370.761 618.242 370.918C618.068 371.076 617.831 371.164 617.584 371.164Z" fill="#CBCBCB"/>
<path d="M744.932 366.259C753.935 366.259 761.233 363.062 761.233 359.119C761.233 355.176 753.935 351.979 744.932 351.979C735.929 351.979 728.631 355.176 728.631 359.119C728.631 363.062 735.929 366.259 744.932 366.259Z" fill="#F1F1F1"/>
<path d="M681.036 357.837C681.741 357.099 682.258 356.231 682.55 355.293C682.843 354.356 682.904 353.372 682.729 352.411C682.554 351.45 682.148 350.536 681.538 349.732C680.929 348.928 680.132 348.254 679.202 347.758L681.579 332.688L671.775 329.152L668.751 350.476C667.93 351.939 667.733 353.623 668.197 355.208C668.661 356.793 669.754 358.17 671.268 359.077C672.782 359.985 674.613 360.359 676.413 360.131C678.214 359.902 679.859 359.086 681.036 357.837L681.036 357.837Z" fill="#FFB7B7"/>
<path d="M577.469 357.511C578.235 356.825 578.825 355.995 579.197 355.081C579.569 354.167 579.714 353.19 579.622 352.22C579.53 351.25 579.203 350.309 578.665 349.465C578.126 348.621 577.389 347.894 576.505 347.334L580.168 332.475L570.697 328.266L565.852 349.315C564.908 350.717 564.567 352.381 564.894 353.994C565.22 355.607 566.191 357.056 567.623 358.066C569.055 359.077 570.849 359.578 572.663 359.476C574.478 359.373 576.188 358.674 577.469 357.511V357.511Z" fill="#FFB7B7"/>
<path d="M658.952 223.128L669.365 219.739C669.365 219.739 673.786 220.586 673.786 231.395C673.786 242.205 685.524 343.016 685.524 343.016L664.981 347.894L653.369 252.249L658.952 223.128Z" fill="#2F2E41"/>
<path d="M589.363 223.128L578.949 219.739C578.949 219.739 574.529 220.586 574.529 231.395C574.529 242.205 562.79 343.016 562.79 343.016L583.334 347.894L594.945 252.249L589.363 223.128Z" fill="#2F2E41"/>
<path d="M589.496 338.104L586.65 413.831L592.952 497.599L609.19 497.937L611.553 419.797L624.945 380.726L623.594 495.883L641.981 495.685L653.369 416.458C653.369 416.458 668.408 350.891 660.068 338.104L621.661 326.587L589.496 338.104Z" fill="#2F2E41"/>
<path d="M589.81 328.979L588.883 347.196C588.883 347.196 601.841 353.011 624.619 349.469C647.396 345.927 662.537 348.262 662.537 348.262L660.788 325.04L589.81 328.979Z" fill="#E5E5E5"/>
<path d="M578.535 220.009L608.486 208.173L610.273 201.975L639.409 202.736L640.668 209.068L669.366 219.739L656.722 259.385L658.019 287.274L673.786 338.104C673.786 338.104 660.487 348.289 628.536 343.907L623.023 333.89L619.651 344.483C619.651 344.483 591.634 353.778 583.869 341.679L589.496 254.281L578.535 220.009Z" fill="#2F2E41"/>
<path d="M338.843 369.164H281.002C279.436 369.163 277.934 368.601 276.826 367.603C275.719 366.604 275.096 365.25 275.094 363.837V191.976C275.096 190.564 275.719 189.209 276.826 188.211C277.934 187.212 279.436 186.65 281.002 186.649H338.843C340.409 186.65 341.911 187.212 343.019 188.211C344.126 189.209 344.749 190.564 344.751 191.976V363.837C344.749 365.25 344.126 366.604 343.019 367.603C341.911 368.601 340.409 369.163 338.843 369.164V369.164Z" fill="#6C63FF"/>
<path d="M127.882 369.164H70.0407C68.4745 369.163 66.9729 368.601 65.8653 367.603C64.7577 366.604 64.1347 365.25 64.1328 363.837V191.976C64.1347 190.564 64.7577 189.209 65.8653 188.211C66.9729 187.212 68.4745 186.65 70.0407 186.649H127.882C129.448 186.65 130.95 187.212 132.057 188.211C133.165 189.209 133.788 190.564 133.79 191.976V363.837C133.788 365.25 133.165 366.604 132.057 367.603C130.95 368.601 129.448 369.163 127.882 369.164V369.164Z" fill="#6C63FF"/>
<path d="M624.576 196.151C635.262 196.151 643.924 188.34 643.924 178.704C643.924 169.068 635.262 161.256 624.576 161.256C613.89 161.256 605.228 169.068 605.228 178.704C605.228 188.34 613.89 196.151 624.576 196.151Z" fill="#FFB7B7"/>
<path d="M647.565 171.943C647.219 170.523 646.554 169.182 645.61 168.004C645.234 164.744 644.028 161.607 642.086 158.836C641.326 157.538 640.246 156.414 638.93 155.551C637.422 154.768 635.702 154.381 633.963 154.434C633.648 154.429 633.08 154.516 632.57 154.537C632.243 154.445 631.913 154.364 631.583 154.287C631.39 153.9 631.007 152.772 630.901 152.849L629.459 153.881C628.85 153.786 628.238 153.712 627.623 153.653C627.399 153.077 627.175 152.501 626.951 151.925C626.588 152.44 626.27 152.98 625.999 153.539C625.387 153.512 624.775 153.503 624.162 153.511L622.937 152.45C622.865 152.746 622.699 153.016 622.459 153.228C622.219 153.44 621.915 153.584 621.586 153.643C621.022 153.695 620.461 153.764 619.901 153.845C619.856 153.844 619.81 153.845 619.765 153.844C616.748 153.776 613.502 153.654 610.98 155.147C609.799 155.878 608.839 156.862 608.183 158.01C607.874 158.199 607.564 158.387 607.264 158.588C606.253 159.21 605.376 159.994 604.677 160.901C604.169 161.683 603.784 162.525 603.532 163.403C602.569 166.044 602.123 168.816 602.214 171.596C602.317 174.394 603.488 177.074 605.529 179.184C606.822 180.438 608.467 181.364 609.763 182.616C612.43 185.194 612.93 188.789 615.212 191.517C617.625 194.402 622.03 196.301 625.898 196.845C628.224 197.161 630.596 197.06 632.878 196.546C635.16 196.033 637.307 195.118 639.196 193.854C640.102 193.285 640.872 192.557 641.46 191.714C642.802 189.62 642.233 186.988 642.732 184.611C643.666 180.156 648.381 176.417 647.565 171.943Z" fill="#2F2E41"/>
<path d="M309.923 165.112C316.518 165.112 321.864 160.291 321.864 154.344C321.864 148.397 316.518 143.576 309.923 143.576C303.328 143.576 297.981 148.397 297.981 154.344C297.981 160.291 303.328 165.112 309.923 165.112Z" fill="#3F3D56"/>
<path d="M98.9612 165.112C105.556 165.112 110.902 160.291 110.902 154.344C110.902 148.397 105.556 143.576 98.9612 143.576C92.3663 143.576 87.02 148.397 87.02 154.344C87.02 160.291 92.3663 165.112 98.9612 165.112Z" fill="#3F3D56"/>
<path d="M233.363 369.165H175.521C173.955 369.163 172.454 368.601 171.346 367.603C170.238 366.604 169.615 365.25 169.614 363.837V123.777C169.615 122.365 170.238 121.011 171.346 120.012C172.454 119.014 173.955 118.452 175.521 118.45H233.363C234.929 118.452 236.431 119.014 237.538 120.012C238.646 121.011 239.269 122.365 239.271 123.777V363.837C239.269 365.25 238.646 366.604 237.538 367.603C236.431 368.601 234.929 369.163 233.363 369.165V369.165Z" fill="#6C63FF"/>
<path d="M444.324 369.164H386.483C384.952 369.194 383.471 368.676 382.363 367.722C381.256 366.769 380.613 365.459 380.575 364.079V96.6155C380.613 95.2354 381.256 93.9251 382.363 92.9718C383.471 92.0186 384.952 91.5 386.483 91.5297H444.324C445.854 91.5 447.336 92.0186 448.443 92.9718C449.55 93.9251 450.194 95.2354 450.232 96.6155V364.079C450.194 365.459 449.55 366.769 448.443 367.722C447.336 368.676 445.854 369.194 444.324 369.164Z" fill="#6C63FF"/>
<path d="M204.442 95.1191C211.037 95.1191 216.383 90.298 216.383 84.3509C216.383 78.4038 211.037 73.5827 204.442 73.5827C197.847 73.5827 192.501 78.4038 192.501 84.3509C192.501 90.298 197.847 95.1191 204.442 95.1191Z" fill="#3F3D56"/>
<path d="M549.805 369.165H491.963C490.397 369.163 488.895 368.601 487.788 367.603C486.68 366.604 486.057 365.25 486.055 363.837V48.4C486.057 46.9876 486.68 45.6335 487.788 44.6348C488.895 43.6361 490.397 43.0744 491.963 43.0728H549.804C551.371 43.0744 552.872 43.6361 553.98 44.6348C555.088 45.6335 555.711 46.9876 555.712 48.4V363.837C555.711 365.25 555.088 366.604 553.98 367.603C552.872 368.601 551.371 369.163 549.805 369.165V369.165Z" fill="#6C63FF"/>
<path d="M415.403 61.0198C421.998 61.0198 427.344 56.1987 427.344 50.2516C427.344 44.3045 421.998 39.4834 415.403 39.4834C408.808 39.4834 403.462 44.3045 403.462 50.2516C403.462 56.1987 408.808 61.0198 415.403 61.0198Z" fill="#3F3D56"/>
<path d="M520.884 21.5364C527.479 21.5364 532.825 16.7153 532.825 10.7682C532.825 4.82109 527.479 0 520.884 0C514.289 0 508.943 4.82109 508.943 10.7682C508.943 16.7153 514.289 21.5364 520.884 21.5364Z" fill="#3F3D56"/>
<path d="M98.3244 155.018L97.2122 153.671L204.443 81.6804L309.582 152.4L416.16 48.052L416.351 47.9814L519.785 9.48523L520.495 11.0384L417.252 49.4632L309.814 154.652L204.442 83.7753L98.3244 155.018Z" fill="#3F3D56"/>
</g>
<defs>
<filter id="filter0_i_17_149" x="0" y="0" width="798" height="519" filterUnits="userSpaceOnUse" color-interpolation-filters="sRGB">
<feFlood flood-opacity="0" result="BackgroundImageFix"/>
<feBlend mode="normal" in="SourceGraphic" in2="BackgroundImageFix" result="shape"/>
<feColorMatrix in="SourceAlpha" type="matrix" values="0 0 0 0 0 0 0 0 0 0 0 0 0 0 0 0 0 0 127 0" result="hardAlpha"/>
<feOffset dx="20" dy="4"/>
<feGaussianBlur stdDeviation="25"/>
<feComposite in2="hardAlpha" operator="arithmetic" k2="-1" k3="1"/>
<feColorMatrix type="matrix" values="0 0 0 0 0 0 0 0 0 0 0 0 0 0 0 0 0 0 0.25 0"/>
<feBlend mode="normal" in2="shape" result="effect1_innerShadow_17_149"/>
</filter>
</defs>
</svg>
